<svg xmlns="http://www.w3.org/2000/svg" xmlns:xlink="http://www.w3.org/1999/xlink" fill="none" version="1.1" width="24" height="24" viewBox="0 0 24 24"><defs><clipPath id="master_svg0_200_1640"><rect x="0" y="0" width="24" height="24" rx="0"/></clipPath></defs><g clip-path="url(#master_svg0_200_1640)"><g transform="matrix(-1,0,0,1,30,0)"><path d="M21.35355,6.353553Q21.42388,6.283227,21.46194,6.191342Q21.5,6.0994562,21.5,6Q21.5,5.9507543,21.490389999999998,5.9024549Q21.48078,5.854155,21.46194,5.808658Q21.443089999999998,5.763161,21.41573,5.722215Q21.388370000000002,5.681269,21.35355,5.646447Q21.318730000000002,5.611625,21.27778,5.584265Q21.23684,5.556906,21.19134,5.53806Q21.14584,5.519215,21.09755,5.509607Q21.04925,5.5,21,5.5Q20.90054,5.5,20.80866,5.53806Q20.71677,5.57612,20.64645,5.646446L20.64601,5.646886L15.353554,10.93934Q14.9142137,11.37868,14.9142136,12Q14.9142135,12.62132,15.353553,13.06066L20.64619,18.3533L20.64645,18.3536Q20.71677,18.4239,20.80866,18.4619Q20.90054,18.5,21,18.5Q21.04925,18.5,21.09755,18.4904Q21.14584,18.480800000000002,21.19134,18.4619Q21.23684,18.4431,21.27778,18.4157Q21.318730000000002,18.3884,21.35355,18.3536Q21.388370000000002,18.3187,21.41573,18.2778Q21.443089999999998,18.236800000000002,21.46194,18.1913Q21.48078,18.1458,21.490389999999998,18.0975Q21.5,18.0492,21.5,18Q21.5,17.9005,21.46194,17.8087Q21.42388,17.7168,21.35355,17.6464L21.35329,17.6462L16.06066,12.35355Q15.914214,12.20711,15.914214,12Q15.914214,11.79289,16.06066,11.64645L21.35355,6.353553L21.35355,6.353553Z" fill-rule="evenodd" fill="#000000" fill-opacity="1"/></g></g></svg>