<svg width="64" height="64" viewBox="0 0 64 64" fill="none" xmlns="http://www.w3.org/2000/svg">
<path d="M43 54L26.5 33.8333H37.5L54 54H43Z" fill="url(#paint0_linear_2001_43)"/>
<path d="M21 54L37.5 33.8333H26.5L10 54H21Z" fill="black"/>
<path d="M21 54L10 54L10 33.8333L21 33.8333L21 54Z" fill="black"/>
<path d="M21 54L10 54L10 33.8333L21 33.8333L21 54Z" fill="black"/>
<rect x="37.5" y="54" width="11" height="5.5" transform="rotate(180 37.5 54)" fill="black"/>
<path d="M54 54L43 54L43 32L54 32L54 54Z" fill="black"/>
<path d="M54 54L43 54L43 32L54 32L54 54Z" fill="black"/>
<path d="M21 9.99999L37.5 30.1667L26.5 30.1667L10 9.99999L21 9.99999Z" fill="url(#paint1_linear_2001_43)"/>
<path d="M43 9.99999L26.5 30.1667L37.5 30.1667L54 9.99999L43 9.99999Z" fill="black"/>
<path d="M54 30.1667L43 30.1667L43 9.99999L54 9.99999L54 30.1667Z" fill="black"/>
<path d="M54 30.1667L43 30.1667L43 9.99999L54 9.99999L54 30.1667Z" fill="black"/>
<path d="M21 30.1667L10 30.1667L10 9.99999L21 9.99999L21 30.1667Z" fill="black"/>
<path d="M21 30.1667L10 30.1667L10 9.99999L21 9.99999L21 30.1667Z" fill="black"/>
<defs>
<linearGradient id="paint0_linear_2001_43" x1="48.5" y1="54" x2="32.9167" y2="33.8333" gradientUnits="userSpaceOnUse">
<stop stop-color="#666666"/>
<stop offset="1"/>
</linearGradient>
<linearGradient id="paint1_linear_2001_43" x1="23.75" y1="9.99999" x2="23.75" y2="30.1667" gradientUnits="userSpaceOnUse">
<stop stop-color="#666666"/>
<stop offset="1"/>
</linearGradient>
</defs>
</svg>
